<svg xmlns="http://www.w3.org/2000/svg" height="600" width="600">
   <path fill="#0d327c" d="M556.5 58.7c-5.6-12.5-21.6-13-28.3-1.2a171.5 171.5 0 01-150 87.5h-80a192 192 0 00-183.8 247C41.9 448.6 14.6 512.3 12.7 517A32 32 0 0072 541.3c1.5-3.6 20.9-48 71.9-90.6 32.4 43.9 94 85.8 174.9 77.2 157-11.4 267.5-152.2 267.5-324.6 0-50.2-10.8-102.2-29.8-144.6z"/>
   <path fill="#328ec8" d="M425.4 339.4L340.7 425a14 14 0 01-19.8 0l-84.7-85.6a60.6 60.6 0 014.3-89.1c24-20 59.6-16.4 81.6 5.8l8.6 8.7 8.6-8.7c22-22.2 57.7-25.8 81.6-5.8a60.6 60.6 0 014.5 89z" />
</svg>
