<svg xmlns="http://www.w3.org/2000/svg" xmlns:xlink="http://www.w3.org/1999/xlink" width="100%" height="100%" viewBox="0 0 640 512" preserveAspectRatio="xMidYMid slice" id="background">
    <defs>
      <path id="biking"          fill="currentColor" d="M400 96a48 48 0 1 0-48-48 48 48 0 0 0 48 48zm-4 121a31.9 31.9 0 0 0 20 7h64a32 32 0 0 0 0-64h-52.78L356 103a31.94 31.94 0 0 0-40.81.68l-112 96a32 32 0 0 0 3.08 50.92L288 305.12V416a32 32 0 0 0 64 0V288a32 32 0 0 0-14.25-26.62l-41.36-27.57 58.25-49.92zm116 39a128 128 0 1 0 128 128 128 128 0 0 0-128-128zm0 192a64 64 0 1 1 64-64 64 64 0 0 1-64 64zM128 256a128 128 0 1 0 128 128 128 128 0 0 0-128-128zm0 192a64 64 0 1 1 64-64 64 64 0 0 1-64 64z"></path>
      <path id="code"            fill="currentColor" d="M278.9 511.5l-61-17.7c-6.4-1.8-10-8.5-8.2-14.9L346.2 8.7c1.8-6.4 8.5-10 14.9-8.2l61 17.7c6.4 1.8 10 8.5 8.2 14.9L293.8 503.3c-1.9 6.4-8.5 10.1-14.9 8.2zm-114-112.2l43.5-46.4c4.6-4.9 4.3-12.7-.8-17.2L117 256l90.6-79.7c5.1-4.5 5.5-12.3.8-17.2l-43.5-46.4c-4.5-4.8-12.1-5.1-17-.5L3.8 247.2c-5.1 4.7-5.1 12.8 0 17.5l144.1 135.1c4.9 4.6 12.5 4.4 17-.5zm327.2.6l144.1-135.1c5.1-4.7 5.1-12.8 0-17.5L492.1 112.1c-4.8-4.5-12.4-4.3-17 .5L431.6 159c-4.6 4.9-4.3 12.7.8 17.2L523 256l-90.6 79.7c-5.1 4.5-5.5 12.3-.8 17.2l43.5 46.4c4.5 4.9 12.1 5.1 17 .6z"></path>
      <path id="database"        fill="currentColor" d="M448 73.143v45.714C448 159.143 347.667 192 224 192S0 159.143 0 118.857V73.143C0 32.857 100.333 0 224 0s224 32.857 224 73.143zM448 176v102.857C448 319.143 347.667 352 224 352S0 319.143 0 278.857V176c48.125 33.143 136.208 48.572 224 48.572S399.874 209.143 448 176zm0 160v102.857C448 479.143 347.667 512 224 512S0 479.143 0 438.857V336c48.125 33.143 136.208 48.572 224 48.572S399.874 369.143 448 336z"></path>
      <path id="leaf-heart"      fill="currentColor" d="M546.2 9.7c-5.6-12.5-21.6-13-28.3-1.2C486.9 62.4 431.4 96 368 96h-80C182 96 96 182 96 288c0 19.2 2.9 37.7 8.1 55.1C31.6 399.5 4.3 463.2 2.4 468c-6.6 16.3 1.2 34.9 17.5 41.6 16.4 6.8 35-1.1 41.8-17.3 1.5-3.6 20.9-47.9 71.9-90.6 32.4 43.9 94 85.8 174.9 77.2C465.5 467.5 576 326.7 576 154.3c0-50.2-10.8-102.2-29.8-144.6zM430.6 294.4L345.9 380c-5.5 5.5-14.3 5.5-19.8 0l-84.7-85.6c-24.6-24.9-23.2-66.1 4.3-89.1 24-20 59.6-16.4 81.6 5.8l8.6 8.7 8.6-8.7c22-22.2 57.7-25.8 81.6-5.8 27.6 22.9 29.1 64.2 4.5 89.1z"></path>
      <path id="heartbeat"       fill="currentColor" d="M320.2 243.8l-49.7 99.4c-6 12.1-23.4 11.7-28.9-.6l-56.9-126.3-30 71.7H60.6l182.5 186.5c7.1 7.3 18.6 7.3 25.7 0L451.4 288H342.3l-22.1-44.2zM473.7 73.9l-2.4-2.5c-51.5-52.6-135.8-52.6-187.4 0L256 100l-27.9-28.5c-51.5-52.7-135.9-52.7-187.4 0l-2.4 2.4C-10.4 123.7-12.5 203 31 256h102.4l35.9-86.2c5.4-12.9 23.6-13.2 29.4-.4l58.2 129.3 49-97.9c5.9-11.8 22.7-11.8 28.6 0l27.6 55.2H481c43.5-53 41.4-132.3-7.3-182.1z"></path>
      <path id="comment-smile"   fill="currentColor" d="M448 0H64C28.7 0 0 28.7 0 64v288c0 35.3 28.7 64 64 64h96v84c0 9.8 11.2 15.5 19.1 9.7L304 416h144c35.3 0 64-28.7 64-64V64c0-35.3-28.7-64-64-64zM320 133.2c14.8 0 26.8 12 26.8 26.8s-12 26.8-26.8 26.8-26.8-12-26.8-26.8 12-26.8 26.8-26.8zm-128 0c14.8 0 26.8 12 26.8 26.8s-12 26.8-26.8 26.8-26.8-12-26.8-26.8 12-26.8 26.8-26.8zm164.2 140.9C331.3 303.3 294.8 320 256 320c-38.8 0-75.3-16.7-100.2-45.9-5.8-6.7-5-16.8 1.8-22.5 6.7-5.7 16.8-5 22.5 1.8 18.8 22 46.5 34.6 75.8 34.6 29.4 0 57-12.6 75.8-34.7 5.8-6.7 15.9-7.5 22.6-1.8 6.8 5.8 7.6 15.9 1.9 22.6z"></path>
      <path id="brackets-curly"  fill="currentColor" d="M208 32h-48a96 96 0 0 0-96 96v37.48a32.06 32.06 0 0 1-9.38 22.65L9.37 233.37a32 32 0 0 0 0 45.26l45.25 45.25A32 32 0 0 1 64 346.51V384a96 96 0 0 0 96 96h48a16 16 0 0 0 16-16v-32a16 16 0 0 0-16-16h-48a32 32 0 0 1-32-32v-37.48a96 96 0 0 0-28.13-67.89L77.25 256l22.63-22.63A96 96 0 0 0 128 165.48V128a32 32 0 0 1 32-32h48a16 16 0 0 0 16-16V48a16 16 0 0 0-16-16zm358.63 201.37l-45.25-45.24a32.06 32.06 0 0 1-9.38-22.65V128a96 96 0 0 0-96-96h-48a16 16 0 0 0-16 16v32a16 16 0 0 0 16 16h48a32 32 0 0 1 32 32v37.47a96 96 0 0 0 28.13 67.91L498.75 256l-22.62 22.63A96 96 0 0 0 448 346.52V384a32 32 0 0 1-32 32h-48a16 16 0 0 0-16 16v32a16 16 0 0 0 16 16h48a96 96 0 0 0 96-96v-37.49a32 32 0 0 1 9.38-22.63l45.25-45.25a32 32 0 0 0 0-45.26z"></path>
      <path id="project-diagram" fill="currentColor" d="M384 320H256c-17.67 0-32 14.33-32 32v128c0 17.67 14.33 32 32 32h128c17.67 0 32-14.33 32-32V352c0-17.67-14.33-32-32-32zM192 32c0-17.67-14.33-32-32-32H32C14.33 0 0 14.33 0 32v128c0 17.67 14.33 32 32 32h95.72l73.16 128.04C211.98 300.98 232.4 288 256 288h.28L192 175.51V128h224V64H192V32zM608 0H480c-17.67 0-32 14.33-32 32v128c0 17.67 14.33 32 32 32h128c17.67 0 32-14.33 32-32V32c0-17.67-14.33-32-32-32z"></path>

      <pattern id="pattern" width="130" height="160" viewBox="0 0 5600 7800" patternUnits="userSpaceOnUse">
        <use href="#biking"          y="0"    x="1000" />
        <use href="#code"            y="1000" x="2000"/>
        <use href="#database"        y="2000" x="3000"/>
        <use href="#leaf-heart"      y="3000" x="4000"/>
        <use href="#heartbeat"       y="4000" x="3000"/>
        <use href="#comment-smile"   y="5000" x="2000"/>
        <use href="#brackets-curly"  y="6000" x="1000"/>
        <use href="#project-diagram" y="7000" x="0"/>
      </pattern>
    </defs>

    <rect fill="url(#pattern)" height="100%" width="100%"/>
  </svg>
